# File created by Blade
# Date/Time:  Thu Sep 25 19:36:54 2014
# Frame Rate: 120.000 fps
#------------------------------------------------------
:FULLY-SPECIFIED
:DEGREES
211
root 0.827092 32.965503 1.595561 17.643723 1.085899 -7.461075
Spine -10.198548 7.157025 6.057552
Head -11.020720 -7.405490 8.215080
LeftShoulder -10.290156 21.624828 15.753165
LeftArm 21.334724 0.261394 -59.088604
LeftForeArm 7.196387 -0.000000 22.468196
LeftHand -24.023611 -0.000000 -8.520130
LeftHandThumb1 -26.253704 0.000000 33.147579
RightShoulder -18.416126 6.552953 -23.276201
RightArm -15.306823 -16.135431 77.430043
RightForeArm -20.442894 0.000000 15.549245
RightHand -5.328484 -0.000000 11.288348
RightHandThumb1 -24.326973 -0.000000 -32.862282
LeftUpLeg -18.777827 1.020993 0.572784
LeftLeg 10.093831 -0.000000 -0.000000
LeftFoot -14.863991 7.127493 -9.503730
LeftToeBase 8.226975 -0.000000 -0.000000
RightUpLeg -21.718676 -1.702531 -10.738464
RightLeg 75.397478 -0.000000 -0.000000
RightFoot 7.105235 -8.415772 8.250535
RightToeBase -2.191828 -0.000000 0.000000
212
root 0.851173 32.971031 1.635968 17.677331 1.005763 -7.544110
Spine -10.394716 7.213098 6.302282
Head -10.867944 -7.400745 8.077448
LeftShoulder -10.400419 21.801320 15.613112
LeftArm 21.218188 0.337215 -58.936672
LeftForeArm 7.119463 -0.000000 22.368175
LeftHand -24.032747 -0.000000 -8.476525
LeftHandThumb1 -26.253704 0.000000 33.147579
RightShoulder -18.472523 6.226542 -23.045271
RightArm -15.458695 -16.790983 77.407232
RightForeArm -20.374898 -0.000000 15.335429
RightHand -5.242852 -0.000000 11.611012
RightHandThumb1 -24.326973 -0.000000 -32.862282
LeftUpLeg -18.714483 1.187022 0.591423
LeftLeg 10.068843 -0.000000 -0.000000
LeftFoot -14.877565 6.958868 -9.625210
LeftToeBase 8.405281 -0.000000 -0.000000
RightUpLeg -21.376665 -1.471473 -11.244986
RightLeg 77.288643 -0.000000 -0.000000
RightFoot 7.620460 -8.413438 8.854590
RightToeBase -1.815057 -0.000000 0.000000
213
root 0.880527 32.974310 1.678397 17.703694 0.910562 -7.579046
Spine -10.599459 7.252437 6.495250
Head -10.655291 -7.403775 7.915874
LeftShoulder -10.495140 21.968554 15.507128
LeftArm 21.096815 0.551152 -58.731143
LeftForeArm 6.820229 -0.000000 22.205336
LeftHand -23.965702 -0.000000 -8.542842
LeftHandThumb1 -26.253704 0.000000 33.147579
RightShoulder -18.505039 5.948975 -22.852341
RightArm -15.697137 -17.317823 77.415393
RightForeArm -20.269633 -0.000000 15.102717
RightHand -5.209434 0.000000 11.985591
RightHandThumb1 -24.326973 -0.000000 -32.862282
LeftUpLeg -18.635637 1.350429 0.553130
LeftLeg 10.029846 -0.000000 -0.000000
LeftFoot -14.849516 6.704186 -9.908032
LeftToeBase 8.390145 -0.000000 -0.000000
RightUpLeg -21.006366 -1.182549 -11.812413
RightLeg 79.207856 -0.000000 -0.000000
RightFoot 7.995311 -8.419705 9.313237
RightToeBase -1.703119 -0.000000 0.000000
214
root 0.897825 32.980507 1.720466 17.738543 0.863614 -7.705135
Spine -10.814332 7.261618 6.803011
Head -10.433737 -7.377572 7.713415
LeftShoulder -10.618940 22.194872 15.356420
LeftArm 21.045417 0.703082 -58.531868
LeftForeArm 6.671173 -0.000000 21.990643
LeftHand -23.929960 0.000000 -8.724814
LeftHandThumb1 -26.253704 0.000000 33.147579
RightShoulder -18.558544 5.737984 -22.692791
RightArm -16.011240 -17.767984 77.413116
RightForeArm -20.190782 -0.000000 14.908559
RightHand -5.266102 -0.000000 12.310472
RightHandThumb1 -24.326973 -0.000000 -32.862282
LeftUpLeg -18.566127 1.474215 0.645140
LeftLeg 9.981171 -0.000000 -0.000000
LeftFoot -14.886148 6.494385 -10.127973
LeftToeBase 8.563558 -0.000000 -0.000000
RightUpLeg -20.631163 -0.938013 -12.248245
RightLeg 81.137728 -0.000000 -0.000000
RightFoot 8.314756 -8.528313 9.614692
RightToeBase -1.084189 -0.000000 0.000000
